<?xml version="1.0" encoding="UTF-8"?>
<svg id="_圖層_1" data-name="圖層 1" xmlns="http://www.w3.org/2000/svg" viewBox="0 0 233.97 21.73">
  <defs>
    <style>
      .cls-1 {
        fill: #fff;
        stroke-width: 0px;
      }
    </style>
  </defs>
  <path class="cls-1" d="m15.22,2.49c1.88,0,5.39.36,7.77,2.79l.22.23,1.73-.94-.38-.4C22.11,1.56,18.04,0,13.7,0,7.06,0,0,3.81,0,10.86s7.06,10.86,13.7,10.86c4.34,0,8.4-1.56,10.87-4.17l.38-.4-1.73-.94-.22.23c-2.38,2.43-5.89,2.79-7.77,2.79-4.71,0-9.73-2.2-9.73-8.37S10.52,2.49,15.22,2.49Z"/>
  <path class="cls-1" d="m45.02,1.84c-.43-1.18-1.37-1.76-2.88-1.76s-2.37.54-2.83,1.75c-2.61,6.55-6.15,12.88-10.51,18.82l-.5.68h2.62l.13-.18c4.12-5.81,7.27-11.47,9.57-17.22,2.06,5.18,5.36,10.98,9.82,17.22l.13.18h6.26l-.55-.69c-5.5-6.9-9.39-13.4-11.25-18.8Z"/>
  <path class="cls-1" d="m82.86.08c-.59,0-1.37.1-2.1.89l-6.2,6.35c-.21.21-.75.76-.98.76-.06,0-.16-.02-.29-.15l-6.24-6.52c-.89-.93-1.75-1.33-2.87-1.33-1.62,0-2.67.87-2.67,2.23v19.02h2.13V4.39l6.27,6.42c.57.57,1.23.84,2.02.84.89,0,1.56-.38,2.62-1.49l6.15-6.31v17.48h4.85V2.27c0-1.33-1.06-2.19-2.7-2.19Z"/>
  <path class="cls-1" d="m107.94.48c-2.42,0-4.39.41-6.61,1.36-.8.36-1.33.52-1.71.52-.56,0-1.04-.37-1.42-1.08-.42-.84-.92-1.2-1.66-1.2-.91,0-1.42.49-1.42,1.35v19.9h4.85v-5.74c1.94,1.66,4.76,2.54,8.25,2.54,6.75,0,10.94-3.38,10.94-8.82S114.97.48,107.94.48Zm-7.97,12.25v-7.72c1.61-1.42,4.8-2.48,7.53-2.48,4.38,0,7.21,2.66,7.21,6.77s-2.84,6.77-7.41,6.77c-3.1,0-5.83-1.25-7.33-3.35Z"/>
  <path class="cls-1" d="m147.66.08c-.59,0-1.37.1-2.1.89l-6.2,6.35c-.21.21-.75.76-.98.76-.06,0-.16-.02-.29-.15l-6.24-6.52c-.89-.93-1.75-1.33-2.87-1.33-1.62,0-2.66.87-2.66,2.23v19.02h2.13V4.39l6.27,6.42c.57.57,1.23.84,2.02.84.89,0,1.56-.38,2.62-1.49l6.15-6.31v17.48h4.85V2.27c0-1.33-1.06-2.19-2.7-2.19Z"/>
  <path class="cls-1" d="m172.02,1.84c-.43-1.18-1.37-1.76-2.88-1.76s-2.37.54-2.83,1.75c-2.61,6.55-6.15,12.88-10.51,18.82l-.5.68h2.62l.13-.18c4.12-5.81,7.27-11.47,9.57-17.22,2.06,5.18,5.36,10.98,9.82,17.22l.13.18h6.26l-.55-.69c-5.5-6.9-9.39-13.4-11.25-18.8Z"/>
  <polygon class="cls-1" points="184.72 2.61 192.32 2.61 192.32 21.33 197.17 21.33 197.17 2.61 204.77 2.61 204.77 .48 184.72 .48 184.72 2.61"/>
  <path class="cls-1" d="m233.97,10.86c0-6.35-4.94-10.78-12.02-10.78s-12.42,4.55-12.42,10.82,5.37,10.82,13.06,10.82c4.87,0,8.69-1.77,10.76-5l.25-.39-1.72-.93-.21.35c-1.32,2.23-4.83,3.91-8.15,3.91-4.78,0-8.29-3.5-8.49-8.39h18.95v-.43Zm-5.14-1.63h-13.77c.19-4.12,3.06-7.07,6.96-7.07s6.63,2.88,6.81,7.07Z"/>
</svg>